<svg xmlns="http://www.w3.org/2000/svg" xmlns:xlink="http://www.w3.org/1999/xlink" xmlns:inkscape="http://www.inkscape.org/namespaces/inkscape" version="1.1" width="283.465" height="283.465" viewBox="0 0 283.465 283.465">
<defs>
<clipPath id="clip_0">
<path transform="matrix(1,0,0,-1,0,283.465)" d="M0 283.465H283.465V0H0Z"/>
</clipPath>
</defs>
<g inkscape:groupmode="layer" inkscape:label="Layer 1">
<g clip-path="url(#clip_0)">
<path transform="matrix(1,0,0,-1,122.5991,37.1425)" d="M0 0C-.41 .04-.86 .09-1.35 .14-1.62 .17-1.87 .19-2.09 .21V.3C-1.4 .2-.7 .1 0 0" fill="#231f20"/>
<path transform="matrix(1,0,0,-1,168.5391,151.8422)" d="M0 0-22.08-.091-21.75-79.12C-20.93-81.37-19.34-84.631-16.28-87.66-15.13-88.801-13.95-89.73-12.79-90.49L15.49-90.37 15.51-94.86C15.51-94.86-35.51-94.9-75.11-94.99L-75.12-90.75-48.2-90.641C-46.2-89.711-43.92-88.301-41.77-86.171-38.88-83.311-37.3-80.24-36.45-78.011-36.25-66.95-36.19-57.94-36.18-51.58-36.1-20.631-36.92-3.48-27.6 1.439-25.49 2.55-23.41 2.75-22.101 2.77L-9.62 2.819C-5.29 6.93 14.31 26.43 15.87 58.029 17.25 85.97 3.64 105.54-.4 110.939-8.41 109.72-18.2 108.939-29.31 109.56-35.56 109.91-41.29 110.66-46.41 111.589-46.73 110.79-47.01 109.87-47.21 108.839-47.73 106.089-47.35 103.83-47.05 102.58-48.24 102.629-49.43 102.669-50.63 102.72-51.36 105.609-51.45 108-51.41 109.6-51.34 111.729-51.24 114.259-49.87 114.87-49.59 115-49.04 115-48.03 114.91-47.81 114.89-47.56 114.87-47.29 114.839-46.8 114.79-46.35 114.74-45.94 114.7-45.51 114.649-45.13 114.6-44.81 114.56-40.18 113.959-35.18 113.52-29.87 113.33-18.22 112.93-7.87 113.839 .81 115.209 59.22 114.209 60.92 2.029 0 0" fill="#231f20"/>
<path transform="matrix(1,0,0,-1,83.6377,89.0668)" d="M0 0C.842 0 1.554 .166 2.132 .5 2.709 .834 3.183 1.312 3.556 1.934 3.925 2.557 4.19 3.309 4.355 4.19 4.52 5.072 4.599 6.062 4.599 7.159 4.599 8.092 4.568 8.989 4.499 9.849 4.434 10.708 4.269 11.464 4.012 12.117 3.751 12.769 3.361 13.291 2.844 13.684 2.323 14.077 1.615 14.273 .708 14.273 .026 14.273-.53 14.159-.96 13.928-1.39 13.698-1.729 13.391-1.98 13.005-2.232 12.62-2.406 12.18-2.503 11.683-2.601 11.186-2.649 10.671-2.649 10.137V2.801C-2.649 1.823-2.406 1.112-1.924 .667-1.444 .222-.804 0 0 0M11.581 11.316C11.894 10.649 12.124 9.93 12.271 9.159 12.419 8.389 12.48 7.614 12.458 6.836 12.437 6.058 12.336 5.294 12.159 4.546 11.98 3.797 11.716 3.097 11.359 2.445 10.973 1.734 10.461 1.115 9.827 .588 9.188 .062 8.485-.375 7.712-.723 6.943-1.071 6.14-1.328 5.311-1.491 4.481-1.653 3.687-1.735 2.931-1.735 2.562-1.735 2.162-1.727 1.732-1.712 1.303-1.698 .859-1.661 .408-1.601-.043-1.542-.504-1.457-.969-1.345-1.437-1.234-1.894-1.076-2.336-.867-2.471-.809-2.556-.804-2.593-.856-2.629-.909-2.649-.957-2.649-1.001V-10.25C-2.649-10.947-2.501-11.51-2.202-11.939-1.907-12.369-1.563-12.71-1.168-12.962-.777-13.215-.387-13.389 0-13.485 .382-13.582 .664-13.644 .842-13.674 .977-13.704 1.077-13.756 1.142-13.83 1.211-13.903 1.237-13.981 1.233-14.063 1.224-14.145 1.185-14.218 1.111-14.286 1.033-14.352 .925-14.385 .777-14.385H-13.41C-13.557-14.385-13.668-14.352-13.744-14.286-13.818-14.218-13.857-14.145-13.866-14.063-13.872-13.981-13.844-13.903-13.776-13.83-13.709-13.756-13.609-13.704-13.477-13.674-13.299-13.644-13.017-13.582-12.632-13.485-12.246-13.389-11.857-13.215-11.464-12.962-11.071-12.71-10.726-12.369-10.431-11.939-10.133-11.51-9.986-10.947-9.986-10.25V11.495C-9.986 12.176-10.133 12.735-10.431 13.173-10.726 13.61-11.071 13.951-11.464 14.195-11.857 14.439-12.246 14.614-12.632 14.718-13.017 14.822-13.299 14.888-13.477 14.918-13.609 14.933-13.709 14.981-13.776 15.063-13.844 15.144-13.872 15.226-13.866 15.307-13.857 15.389-13.818 15.462-13.744 15.53-13.668 15.596-13.557 15.629-13.41 15.629H-2.649 1.042C1.889 15.629 2.723 15.622 3.543 15.608 4.368 15.593 5.167 15.511 5.944 15.362 6.722 15.215 7.478 14.969 8.211 14.628 8.945 14.288 9.653 13.799 10.335 13.162 10.586 12.909 10.821 12.62 11.038 12.294 11.251 11.969 11.434 11.642 11.581 11.316" fill="#231f20"/>
<path transform="matrix(1,0,0,-1,105.6143,81.796298)" d="M0 0C.074-.089 .193-.097 .356-.023 .949 .244 1.631 .588 2.401 1.011 3.172 1.433 3.932 1.901 4.679 2.412 5.428 2.923 6.121 3.457 6.759 4.012 7.396 4.568 7.877 5.105 8.203 5.625 8.353 5.861 8.479 6.136 8.583 6.447 8.685 6.758 8.733 7.059 8.727 7.347 8.72 7.636 8.646 7.906 8.505 8.159 8.364 8.411 8.138 8.604 7.825 8.737 7.53 8.87 7.243 8.926 6.97 8.904 6.696 8.881 6.436 8.811 6.192 8.692 5.947 8.574 5.721 8.415 5.513 8.215 5.307 8.015 5.12 7.803 4.957 7.581 4.929 7.551 4.799 7.37 4.568 7.036 4.338 6.702 4.058 6.291 3.724 5.802 3.392 5.313 3.027 4.78 2.634 4.201 2.241 3.624 1.868 3.071 1.511 2.544 1.155 2.019 .84 1.556 .567 1.155 .293 .755 .111 .488 .022 .355-.067 .207-.074 .088 0 0M15.82-21.155C15.872-21.223 15.889-21.293 15.874-21.367 15.859-21.441 15.82-21.508 15.752-21.567 15.685-21.626 15.594-21.656 15.475-21.656H7.426C7.263-21.656 7.133-21.619 7.037-21.545 6.939-21.47 6.892-21.352 6.892-21.189V-19.877C6.271-20.5 5.461-21.044 4.469-21.511 3.477-21.978 2.245-22.211 .777-22.211-.438-22.211-1.457-22.078-2.279-21.811-3.103-21.545-3.784-21.189-4.325-20.744-4.865-20.3-5.28-19.789-5.569-19.21-5.858-18.632-6.066-18.032-6.192-17.409-6.318-16.787-6.392-16.168-6.414-15.553-6.437-14.938-6.448-14.364-6.448-13.83V-5.136C-6.448-4.543-6.565-4.066-6.804-3.702-7.041-3.339-7.31-3.057-7.614-2.857-7.918-2.658-8.216-2.521-8.504-2.446-8.793-2.372-8.997-2.32-9.115-2.291-9.234-2.275-9.318-2.232-9.371-2.157-9.423-2.083-9.442-2.01-9.427-1.935-9.412-1.861-9.371-1.794-9.306-1.735-9.238-1.676-9.145-1.646-9.028-1.646H-.979C-.623-1.646-.445-1.839-.445-2.224V-15.23C-.43-15.824-.375-16.417-.278-17.009-.182-17.602-.004-18.14 .256-18.621 .515-19.103 .877-19.492 1.344-19.789 1.811-20.085 2.438-20.232 3.225-20.232 4.054-20.232 4.709-20.059 5.191-19.71 5.674-19.362 6.041-18.921 6.292-18.387 6.544-17.854 6.707-17.265 6.781-16.62 6.855-15.975 6.892-15.356 6.892-14.763V-5.136C6.892-4.543 6.774-4.066 6.536-3.702 6.299-3.339 6.03-3.057 5.726-2.857 5.422-2.658 5.125-2.521 4.835-2.446 4.547-2.372 4.343-2.32 4.226-2.291 4.106-2.275 4.021-2.232 3.969-2.157 3.917-2.083 3.897-2.01 3.913-1.935 3.928-1.861 3.969-1.794 4.034-1.735 4.102-1.676 4.195-1.646 4.312-1.646H12.361C12.717-1.646 12.895-1.839 12.895-2.224V-18.166C12.895-18.758 13.015-19.236 13.251-19.6 13.488-19.962 13.759-20.245 14.063-20.444 14.367-20.644 14.663-20.785 14.951-20.867 15.24-20.948 15.444-20.997 15.563-21.011 15.681-21.042 15.768-21.089 15.82-21.155" fill="#231f20"/>
<path transform="matrix(1,0,0,-1,135.0234,100.228)" d="M0 0C.267 .132 .46 .118 .58-.044 .697-.208 .704-.379 .602-.556 .334-1.031-.002-1.464-.41-1.856-.818-2.25-1.281-2.59-1.8-2.88-2.319-3.169-2.885-3.391-3.502-3.546-4.117-3.702-4.766-3.78-5.447-3.78-6.188-3.78-6.922-3.684-7.647-3.491-8.374-3.298-9.025-2.954-9.603-2.457-10.183-1.96-10.652-1.286-11.017-.434-11.379 .418-11.562 1.503-11.562 2.824V15.318C-11.562 15.437-11.62 15.496-11.737 15.496H-12.317C-12.673 15.496-12.89 15.519-12.973 15.563-13.053 15.608-13.094 15.703-13.094 15.852-13.094 16.044-13.01 16.249-12.838 16.463-12.669 16.678-12.458 16.786-12.204 16.786H-11.716C-11.614 16.786-11.562 16.844-11.562 16.964V22.278C-11.562 22.604-11.427 22.789-11.16 22.833-10.791 22.907-10.394 23.007-9.97 23.133-9.549 23.259-9.119 23.408-8.68 23.578-8.244 23.748-7.814 23.933-7.393 24.134-6.969 24.334-6.581 24.545-6.225 24.767-6.062 24.856-5.91 24.871-5.769 24.812-5.627 24.753-5.558 24.604-5.558 24.368V16.941C-5.558 16.838-5.5 16.786-5.38 16.786H-1.201C-.845 16.786-.625 16.764-.545 16.72-.462 16.675-.421 16.578-.421 16.43-.421 16.237-.525 16.033-.734 15.818-.94 15.604-1.17 15.496-1.422 15.496H-5.402C-5.506 15.496-5.558 15.444-5.558 15.341V1.667C-5.558 1.267-5.486 .914-5.345 .611-5.207 .307-5.02 .048-4.79-.167-4.562-.382-4.294-.542-3.991-.645-3.687-.749-3.378-.801-3.068-.801-2.43-.801-1.837-.709-1.29-.523-.74-.337-.311-.164 0 0" fill="#231f20"/>
<path transform="matrix(1,0,0,-1,142.2407,90.201099)" d="M0 0C-.03-.193 .059-.289 .265-.289 .311-.289 .458-.286 .71-.278 .961-.271 1.27-.26 1.632-.245 1.996-.23 2.386-.215 2.801-.2 3.215-.186 3.613-.17 3.991-.155 4.369-.141 4.694-.13 4.967-.123 5.242-.115 5.417-.104 5.491-.089 5.728-.074 5.975 .029 6.236 .223 6.494 .415 6.625 .748 6.625 1.222 6.625 1.652 6.566 2.149 6.446 2.713 6.327 3.275 6.138 3.809 5.879 4.313 5.622 4.817 5.292 5.243 4.889 5.592 4.49 5.939 4.001 6.114 3.424 6.114 2.963 6.114 2.564 5.991 2.223 5.747 1.88 5.503 1.589 5.184 1.344 4.792 1.098 4.399 .897 3.964 .731 3.49 .569 3.016 .437 2.553 .332 2.101 .228 1.649 .15 1.234 .1 .856 .048 .478 .013 .192 0 0M.243-1.468C.006-1.468-.113-1.594-.113-1.846-.113-3.357 .021-4.654 .289-5.736 .556-6.819 .945-7.704 1.455-8.393 1.967-9.083 2.603-9.59 3.368-9.916 4.129-10.242 5.015-10.406 6.025-10.406 6.793-10.406 7.48-10.324 8.082-10.16 8.68-9.998 9.204-9.809 9.649-9.594 10.094-9.379 10.457-9.175 10.737-8.982 11.019-8.79 11.227-8.663 11.36-8.604 11.568-8.516 11.731-8.534 11.848-8.66 11.967-8.786 11.967-8.975 11.848-9.227 11.805-9.316 11.705-9.491 11.548-9.749 11.394-10.008 11.167-10.309 10.872-10.65 10.574-10.991 10.205-11.347 9.759-11.717 9.314-12.087 8.785-12.428 8.17-12.74 7.553-13.051 6.85-13.306 6.057-13.507 5.265-13.707 4.379-13.807 3.4-13.807 1.919-13.807 .578-13.573-.623-13.106-1.824-12.64-2.851-11.961-3.702-11.072-4.555-10.183-5.215-9.101-5.682-7.826-6.149-6.552-6.381-5.113-6.381-3.513-6.381-1.764-6.092-.215-5.515 1.134-4.937 2.482-4.182 3.613-3.246 4.525-2.313 5.436-1.253 6.129-.067 6.604 1.118 7.077 2.326 7.314 3.556 7.314 4.711 7.314 5.732 7.155 6.614 6.837 7.495 6.518 8.259 6.103 8.904 5.592 9.549 5.081 10.081 4.509 10.504 3.88 10.927 3.249 11.266 2.624 11.527 2 11.786 1.378 11.967 .792 12.072 .244 12.176-.304 12.228-.742 12.228-1.067 12.228-1.216 12.178-1.319 12.083-1.379 11.987-1.437 11.857-1.468 11.694-1.468Z" fill="#231f20"/>
<path transform="matrix(1,0,0,-1,165.9131,84.108798)" d="M0 0C-.593 0-1.138-.204-1.635-.612-2.132-1.02-2.558-1.594-2.913-2.335-3.268-3.077-3.543-3.969-3.734-5.015-3.928-6.059-4.025-7.212-4.025-8.471-4.025-9.747-3.864-10.883-3.545-11.884-3.229-12.885-2.787-13.733-2.223-14.43-1.661-15.127-1.001-15.66-.245-16.03 .511-16.401 1.327-16.586 2.202-16.586 3.047-16.586 3.819-16.461 4.525-16.208 5.229-15.956 5.852-15.675 6.393-15.363 6.933-15.052 7.378-14.755 7.726-14.475 8.075-14.193 8.316-14.023 8.448-13.963 8.657-13.874 8.822-13.893 8.948-14.019 9.074-14.145 9.071-14.333 8.937-14.585 8.848-14.749 8.7-14.993 8.494-15.319 8.285-15.646 8.008-16.005 7.66-16.397 7.311-16.79 6.892-17.194 6.403-17.609 5.915-18.024 5.348-18.402 4.703-18.743 4.059-19.084 3.331-19.362 2.523-19.577 1.716-19.792 .814-19.899-.178-19.899-1.72-19.899-3.104-19.677-4.336-19.232-5.566-18.788-6.617-18.135-7.492-17.275-8.367-16.417-9.038-15.36-9.505-14.107-9.972-12.854-10.204-11.428-10.204-9.828-10.204-8.42-10.026-7.167-9.673-6.07-9.316-4.973-8.846-4.018-8.259-3.203-7.675-2.387-7.004-1.698-6.248-1.134-5.49-.571-4.718-.115-3.925 .233-3.131 .581-2.349 .834-1.578 .989-.808 1.144-.11 1.222 .511 1.222 1.521 1.222 2.445 1.13 3.29 .944 4.134 .759 4.861 .5 5.47 .166 6.077-.167 6.551-.56 6.892-1.012 7.232-1.464 7.404-1.95 7.404-2.469 7.404-2.928 7.326-3.313 7.17-3.625 7.016-3.936 6.813-4.191 6.57-4.391 6.325-4.592 6.052-4.736 5.747-4.826 5.443-4.914 5.135-4.958 4.825-4.958 4.38-4.958 3.961-4.877 3.567-4.714 3.175-4.551 2.854-4.277 2.602-3.891 2.408-3.61 2.252-3.246 2.135-2.802 2.016-2.357 1.878-1.927 1.722-1.512 1.568-1.098 1.364-.742 1.112-.445 .86-.149 .489 0 0 0" fill="#231f20"/>
</g>
</g>
</svg>
